<svg xmlns="http://www.w3.org/2000/svg" xmlns:xlink="http://www.w3.org/1999/xlink" width="157.26" height="148.024" viewBox="0 0 157.26 148.024"><defs><linearGradient id="a" x1="0.5" x2="0.5" y2="1" gradientUnits="objectBoundingBox"><stop offset="0" stop-color="#3cd5b4"/><stop offset="1" stop-color="#4655ee"/></linearGradient></defs><g transform="translate(0 0)"><g transform="translate(0 115.466)"><path d="M18.966,621.2l-4.341,12.147H12.37L10.582,628c-.466-1.416-.912-2.985-1.118-3.838-.242.875-.652,2.422-1.1,3.838l-1.77,5.347H4.322L0,621.2H2.4l1.845,5.608c.484,1.528.932,3.093,1.211,4.005.224-.912.633-2.478,1.1-4.005L8.311,621.2h2.31l1.751,5.608c.466,1.546.912,3.112,1.137,3.987.242-.875.726-2.422,1.249-3.987L16.62,621.2Z" transform="translate(0 -620.933)" fill="#fff"/><path d="M141.922,631.328v1.919H132.7V621.1h9.185v1.919h-6.946v3.2h6.353v1.824h-6.353v3.279Z" transform="translate(-107.978 -620.852)" fill="#fff"/><path d="M211.6,628.91l2.161-.541c.41,1.416,1.509,2.18,3.577,2.18,1.824,0,2.758-.6,2.758-1.676,0-3.151-7.936-.279-7.936-5.477,0-2.239,1.77-3.6,4.676-3.6,2.925,0,4.713,1.229,5.16,3.521l-2.124.541c-.332-1.434-1.36-2.142-3.093-2.142-1.6,0-2.441.6-2.441,1.584,0,3.037,7.918.391,7.918,5.514,0,2.329-1.919,3.648-5.012,3.648C214.3,632.469,212.2,631.332,211.6,628.91Z" transform="translate(-172.178 -619.795)" fill="#fff"/><path d="M305.592,623.156H301.2v10.172h-2.2V623.156H294.6V621.2h10.973v1.956Z" transform="translate(-239.715 -620.933)" fill="#fff"/><path d="M437.282,629.763c0,2.2-1.3,3.482-4.546,3.482H426.7V621.1h5.813c3.13,0,4.3,1.3,4.3,3.26a2.829,2.829,0,0,1-1.6,2.552A2.794,2.794,0,0,1,437.282,629.763Zm-8.365-6.726v3.185H432.1c1.9,0,2.516-.6,2.516-1.621,0-.968-.559-1.565-2.441-1.565Zm6.111,6.6c0-1.118-.708-1.658-2.459-1.658H428.92v3.354h3.745c1.729,0,2.362-.578,2.362-1.7Z" transform="translate(-347.203 -620.852)" fill="#fff"/><path d="M527.122,631.328v1.919H517.9V621.1h9.167v1.919h-6.949v3.2h6.353v1.824h-6.353v3.279Z" transform="translate(-421.412 -620.852)" fill="#fff"/><path d="M604.115,630.421h-5.794l-1.1,2.683H594.8l5.422-12.2h2.068l5.4,12.2h-2.441Zm-.764-1.863-.912-2.18c-.58-1.4-1.006-2.57-1.23-3.151-.224.58-.652,1.77-1.229,3.151l-.912,2.18Z" transform="translate(-483.985 -620.69)" fill="#fff"/><path d="M688.1,626.133a6.03,6.03,0,0,1,6.279-6.334c2.962,0,5.1,1.6,5.738,4.043l-2.124.58a3.515,3.515,0,0,0-3.6-2.57,3.95,3.95,0,0,0-4.043,4.285c0,2.534,1.584,4.285,4.024,4.285a3.472,3.472,0,0,0,3.6-2.57l2.124.58c-.633,2.441-2.795,4.043-5.776,4.043a6.006,6.006,0,0,1-6.223-6.341Z" transform="translate(-559.901 -619.793)" fill="#fff"/><path d="M796.173,621.2v12.147h-2.239v-5.254h-6.521v5.254H785.2V621.2h2.217v4.937h6.521V621.2Z" transform="translate(-638.913 -620.933)" fill="#fff"/></g><g transform="translate(42.161 135.537)"><path d="M236.565,742.7v9.446h-1.453l.018-4.7c0-.932.037-1.919.056-2.459-.3.447-.857,1.248-1.453,2.05l-1.845,2.5H230.9l-1.824-2.5c-.58-.783-1.1-1.546-1.4-1.975.018.541.056,1.492.056,2.4l.018,4.7H226.3v-9.447h1.267l2.422,3.335c.541.764,1.1,1.509,1.434,1.99.332-.484.876-1.249,1.416-1.99l2.422-3.335h1.3Z" transform="translate(-226.3 -739.868)" fill="#fff"/><path d="M313.129,749.714h-4.676l-.968,2.273H305.9l4.21-9.482h1.379l4.192,9.483h-1.6Zm-.521-1.248-.838-1.975c-.466-1.1-.8-2.031-.987-2.459-.166.466-.522,1.379-.987,2.459l-.838,1.975Z" transform="translate(-291.07 -739.706)" fill="#fff"/><path d="M379.933,744h-3.539v8.142H374.94V744H371.4v-1.3h8.551V744Z" transform="translate(-344.367 -739.868)" fill="#fff"/><path d="M437.329,749.714h-4.676l-.968,2.273H430.1l4.21-9.482h1.36l4.192,9.483h-1.6Zm-.521-1.248-.838-1.975c-.466-1.1-.8-2.031-.987-2.459-.166.466-.522,1.379-.987,2.459l-.838,1.975Z" transform="translate(-392.131 -739.706)" fill="#fff"/><path d="M511.355,748.96h-2.7v3.185H507.2V742.7h4.173c2.683,0,3.987,1.062,3.987,3.13a2.776,2.776,0,0,1-2.422,2.985l2.516,3.335h-1.77Zm-2.7-1.341h2.683c1.676,0,2.552-.522,2.552-1.807S513.031,744,511.336,744h-2.683Z" transform="translate(-454.867 -739.868)" fill="#fff"/><path d="M575.3,735.045a4.928,4.928,0,1,1,4.918,4.937,4.719,4.719,0,0,1-4.918-4.937Zm8.365,0a3.45,3.45,0,1,0-3.447,3.6,3.366,3.366,0,0,0,3.447-3.6Zm-4.49-5.887,1.492-1.658,1.807.6-2.589,1.639Z" transform="translate(-510.279 -727.5)" fill="#fff"/></g><path d="M96.563,8.7,94.979,9.779l.726-1.77a9.415,9.415,0,0,1,.447-.987l.075-.13.112-.075c2.683-1.882,5.254-3.9,7.843-6.111l.112-.093.149-.037a9.406,9.406,0,0,1,1.23-.2l1.9-.242L106.12,1.36A95.844,95.844,0,0,1,96.563,8.7ZM115.6,3.112l-.673-.541c-.166-.13-.332-.261-.521-.391L114,1.9l-.391.3A113.235,113.235,0,0,1,95.129,13.377L94.7,13.6l.056.466c.018.166.037.317.056.484l.13.932.837-.41A120.745,120.745,0,0,0,114.9,3.648Zm3.055,5.962.5-.3-.224-.541c-.075-.166-.149-.332-.224-.484l-.317-.689-.652.391a194.525,194.525,0,0,1-21.127,10.4l-.8.354.6,1.676,1.658-.726a200.453,200.453,0,0,0,20.589-10.08ZM105.823,21.22l.13-.056c5.086-1.9,9.893-3.708,14.7-5.85l.652-.3-.689-1.882-.746.332c-4.956,2.254-9.968,4.155-15.256,6.148l-.224.075c-.726.279-1.453.559-2.2.82-1.528.58-3.037,1.192-4.509,1.824l-.671.279.652,1.824.746-.332c1.6-.689,3.2-1.341,4.769-1.938C104.09,21.872,104.947,21.557,105.823,21.22Zm7.45,3.073h.018c3.13-1.043,6.372-2.105,9.5-3.242l.726-.261-.689-1.863-.726.261c-3.354,1.211-6.819,2.366-10.172,3.482l-.149.056-2.18.726a76.832,76.832,0,0,0-9.986,4.117L99,27.886l.708,1.938.764-.391A71.222,71.222,0,0,1,110.587,25.2C111.523,24.873,112.4,24.574,113.272,24.293Zm7.694,3.037.279-.093c1.174-.372,2.366-.746,3.539-1.118l.857-.279-.764-2.068-.783.242c-1.4.447-2.795.876-4.21,1.327l-.075.018c-.8.242-1.6.5-2.422.746A68.506,68.506,0,0,0,101.719,33l-.6.372.838,2.254.895-.559a64.544,64.544,0,0,1,15.612-6.986c.861-.228,1.681-.488,2.5-.75ZM127.747,31l-.783-2.142-.8.279c-6.95,2.385-14.96,5.555-21.7,10.88l-.484.391.932,2.516.932-.764c6.484-5.329,14.308-8.477,21.09-10.861Zm2.217,6.018-.838-2.273-.82.317c-9.11,3.6-15.519,7.788-20.773,13.619l-.354.391,1.1,2.962.95-1.1c5.049-5.831,11.215-10.023,19.972-13.6Zm2.105,7.788.633-.354-.912-2.5-.876.484a53.561,53.561,0,0,0-18.5,16.32l-.018.018c-.261.391-.521.82-.8,1.267l-.224.354,1.267,3.428.932-1.546c.391-.652.726-1.192,1.043-1.676a52.087,52.087,0,0,1,17.459-15.8Zm3.562,9.915.5-.391-1.006-2.736-.932.708A61.647,61.647,0,0,0,121.156,65.66l-.018.018a87.6,87.6,0,0,0-4.733,8.142l-.166.332,1.341,3.633.895-1.751a90.882,90.882,0,0,1,4.881-8.44A61.112,61.112,0,0,1,135.631,54.721Zm4.21,10.489-.932-2.57-.746.726a73.211,73.211,0,0,0-8.011,9.092l-.018.018a102.474,102.474,0,0,0-7.583,13.377l-.224.484.41.332a10.919,10.919,0,0,0,.932.689l.633.41.332-.689a103.153,103.153,0,0,1,7.379-12.893,71.342,71.342,0,0,1,7.508-8.682Zm3.2,9.557-.932,1.078c-1.043,1.211-2.05,2.459-3,3.689-1.788,2.534-3.5,5.2-5.217,8.16l-.764,1.327,1.453-.484a12.592,12.592,0,0,0,1.788-.764l.149-.075.075-.13c1.4-2.31,2.776-4.416,4.21-6.427.689-.895,1.416-1.824,2.18-2.736l.112-.13.018-.166a12.9,12.9,0,0,0,.037-1.9ZM206.185,1.192l2.1-1.006L205.981.075a7.155,7.155,0,0,0-.895,0h-.2l-.112.056c-2.776,1.341-5.738,2.758-8.607,4.21l-.112.056-.075.093c-.2.242-.41.522-.615.82L194,7.246l2.105-1.078C199.441,4.452,202.776,2.832,206.185,1.192ZM212.091,3.3l1.4-.671-1.3-.838-.447-.279-.391-.224-.41.2a176.716,176.716,0,0,0-17.643,9.369l-.372.242-.037.447c-.018.242-.018.466-.018.689l-.018,1.6,1.341-.857a161.743,161.743,0,0,1,17.9-9.684Zm4.267,2.869-.559-.82-.279-.391-.429-.58-.652.317a102.187,102.187,0,0,0-18.09,10.661l-.018.018c-.633.522-1.285,1.062-1.938,1.621l-.522.447.3.6q.166.332.332.615l.521.912.783-.689c.726-.633,1.434-1.249,2.105-1.807a98.212,98.212,0,0,1,17.494-10.47ZM218,10.73l-.13-.615c-.037-.187-.075-.354-.13-.541l-.279-1.1-.987.559a87.194,87.194,0,0,0-13.06,9.073l-.018.018c-1.453,1.327-2.869,2.72-4.21,4.155l-.746.8.95.541a5.388,5.388,0,0,0,.726.372l.58.279.429-.466c1.285-1.379,2.627-2.72,3.987-3.987a84.745,84.745,0,0,1,12.354-8.813ZM210.3,20.845h0c-.708.746-1.416,1.509-2.142,2.347l-1.3,1.492,1.9-.541a12.666,12.666,0,0,0,1.6-.58l.112-.056.075-.093c.447-.5.8-.895,1.137-1.249,1.453-1.416,2.943-2.758,4.452-4.005l.093-.093.056-.112a12.567,12.567,0,0,0,.615-1.375l.708-1.938-1.621,1.267c-1.919,1.526-3.838,3.185-5.682,4.937ZM164.9,3.3l.466-.391-.332-.5c-.093-.149-.2-.3-.3-.447l-.41-.6-.561.464a91.422,91.422,0,0,1-18.016,12.017c-.6.261-1.23.541-1.882.8l-.6.242.633,1.807.652-.261c.82-.317,1.565-.633,2.292-.968A90.236,90.236,0,0,0,164.9,3.3Zm3.428,8.457.447-.354-.746-2.05-.838.652a73.368,73.368,0,0,1-13,8.291,70.67,70.67,0,0,1-8.03,2.925l-.783.242.708,1.956.689-.2a75.979,75.979,0,0,0,8.607-3.13,67.81,67.81,0,0,0,12.947-8.326Zm3.223,8.794.541-.391-.82-2.254-.912.652a61,61,0,0,1-7.266,4.452,72.522,72.522,0,0,1-14.344,5.049l-.932.242.82,2.18.746-.187a75.313,75.313,0,0,0,15.09-5.347,60.038,60.038,0,0,0,7.077-4.394Zm3.093,8.253.6-.372-.838-2.273-.895.559c-.466.3-.912.559-1.3.8-6.446,3.6-13.507,5.608-20.773,7.527l-.912.242.838,2.273.764-.2c7.862-2.124,14.924-4.192,21.557-7.936.279-.185.6-.371.968-.614Zm2.813,8.309.671-.354-.838-2.292-.876.447c-5.813,3-12.222,5.049-18.444,7.023-1.23.391-2.516.8-3.763,1.211l-.857.279.876,2.4.8-.261c1.416-.466,2.85-.95,4.228-1.4,6.112-2.011,12.428-4.078,18.2-7.06Zm-9.893,13.9h0l-.149-.447h0l.187.429c4.267-1.733,8.663-3.5,12.836-5.608l.689-.354L180.27,42.7l-.857.429c-4.248,2.124-8.775,3.9-13.172,5.626-1.192.466-2.366.932-3.539,1.4-1.807.726-3.559,1.472-5.217,2.2l-.746.332.933,2.537.857-.391c1.733-.8,3.539-1.584,5.514-2.4C165.2,51.979,166.371,51.5,167.564,51.01Zm16.06,3.055.652-.354-.876-2.4-.876.466c-3.689,1.975-7.489,3.708-10.4,5.012-4.192,1.882-7.825,3.67-11.1,5.477l-.652.354.95,2.57.876-.5c3.354-1.9,7.042-3.745,11.272-5.664,4.058-1.823,7.284-3.386,10.153-4.953Zm3.2,8.719.633-.354-.876-2.422-.895.5c-1.509.857-3.112,1.714-4.751,2.552a170.121,170.121,0,0,0-16.3,9.24l-.58.372.968,2.646.912-.615a169.4,169.4,0,0,1,16.377-9.464c1.569-.8,3.078-1.638,4.513-2.457Zm3.482,8.048-.746-2.05-.708.41c-7.657,4.49-14.012,8.291-20.214,12.781l-.522.372.354.541c.187.279.391.559.58.82l.41.522.521-.391c6.073-4.471,12.315-8.253,19.823-12.724ZM177.828,87.209l-1.379.987,1.7.075c.187,0,.391.018.58.018.332,0,.652-.018.987-.037l.166-.018.13-.093c3.26-2.329,6.539-4.527,9.632-6.6l.13-.075.075-.13a10.056,10.056,0,0,0,.615-1.379l.615-1.658-1.472.968c-4.248,2.777-8.048,5.292-11.774,7.938ZM155.976,0H153.24a114.784,114.784,0,0,1-10.359,7.3l-.224.13-.056.242c-.056.261-.093.522-.13.783l-.166,1.23,1.043-.652A110.89,110.89,0,0,0,155.976,0Z" transform="translate(-77.057)" fill="url(#a)"/></g></svg>